<svg version="1.1" id="Layer_1" xmlns="http://www.w3.org/2000/svg" xmlns:xlink="http://www.w3.org/1999/xlink" x="0px" y="0px"
	 width="100%" viewBox="0 0 888 155" enable-background="new 0 0 888 155" xml:space="preserve">
<path fill="#FDFDFD" opacity="1.000000" stroke="none" 
	d="
M662.000000,156.000000 
	C441.386047,156.000000 221.272125,156.000000 1.079092,156.000000 
	C1.079092,104.398544 1.079092,52.796925 1.079092,1.097653 
	C296.999969,1.097653 593.000000,1.097653 888.972595,1.097653 
	C888.972595,52.727943 888.972595,104.363983 888.972595,156.000000 
	C813.463440,156.000000 737.981750,156.000000 662.000000,156.000000 
M562.279053,106.505928 
	C562.438721,107.013420 562.598450,107.520912 562.699707,108.848541 
	C565.853882,125.932838 579.098267,138.324646 596.683838,140.645020 
	C612.701721,142.758530 630.398499,135.087463 635.987488,123.434296 
	C631.828186,120.544159 627.639221,117.633446 623.921875,115.050446 
	C619.784546,117.922112 616.413147,121.054008 612.440735,122.875046 
	C599.016113,129.029144 586.766541,123.420990 578.987183,107.361450 
	C579.028931,106.926262 579.070679,106.491066 580.035217,106.025490 
	C600.137329,106.025490 620.239502,106.025490 640.223328,106.025490 
	C643.969116,80.515717 628.587402,60.123882 604.388428,57.613575 
	C584.610901,55.561932 564.090393,71.748032 562.825623,90.877655 
	C568.119019,90.877655 573.391724,90.877655 578.742859,90.877655 
	C578.825684,92.529961 578.883362,93.681175 578.478699,95.036705 
	C578.343750,95.137573 578.208740,95.238449 577.239380,95.176888 
	C575.830444,95.220917 574.421448,95.264946 572.150879,95.112381 
	C570.096619,95.174042 568.042358,95.235703 565.147522,95.141792 
	C564.033508,96.112389 562.182556,96.941132 561.962585,98.083824 
	C561.535828,100.300720 562.025879,102.694107 562.070862,105.510658 
	C562.146057,105.659645 562.221191,105.808632 562.279053,106.505928 
M488.514526,25.735518 
	C484.583649,25.735518 480.652740,25.735518 476.763855,25.735518 
	C476.763855,63.634445 476.763855,100.835510 476.763855,138.419571 
	C491.566010,138.419571 506.031311,138.578339 520.491882,138.382736 
	C542.750549,138.081650 557.727295,118.143837 552.392700,96.496109 
	C550.160461,87.437675 544.632324,81.072365 536.893066,76.157112 
	C546.802429,66.572533 548.996155,55.501572 544.043091,43.434559 
	C538.907837,30.923878 528.774353,25.623541 515.491028,25.747929 
	C506.831787,25.829016 498.170929,25.745167 488.514526,25.735518 
M372.788452,93.619362 
	C376.810272,96.514046 379.153442,100.292175 379.287720,105.380196 
	C379.516022,114.031723 374.342133,120.333397 364.645508,123.037163 
	C347.659760,127.773415 334.987061,122.945129 322.143829,106.674210 
	C316.980072,109.553093 311.773621,112.455788 306.217590,115.553360 
	C307.268585,117.411400 308.122498,118.996452 309.044922,120.540581 
	C325.075592,147.375961 368.479584,146.367950 385.393250,133.189484 
	C402.627533,119.761200 404.194550,88.391167 381.209900,76.835579 
	C373.695679,73.057785 365.390381,70.849907 357.437744,67.948990 
	C350.731995,65.502899 343.693298,63.721889 337.378754,60.511929 
	C328.995087,56.250137 327.722168,45.209198 334.627197,39.051296 
	C337.236969,36.723911 340.802155,34.891312 344.218109,34.146927 
	C357.190521,31.320063 368.688721,33.817577 377.203705,45.484020 
	C382.335297,42.502911 387.252441,39.646397 392.157166,36.797081 
	C389.226074,31.539438 386.314026,27.395645 381.963959,27.767523 
	C379.868927,25.005981 378.915955,22.490284 377.151703,21.620911 
	C361.115204,13.718570 344.693695,13.014743 328.591431,21.041470 
	C317.412292,26.614105 311.567566,36.259659 311.478760,48.889473 
	C311.393005,61.091167 316.666168,70.585091 327.526001,76.239807 
	C333.678894,79.443604 340.381592,81.621933 346.909882,84.066681 
	C355.300171,87.208725 363.763947,90.154640 372.788452,93.619362 
M103.652542,109.936958 
	C104.786743,93.215813 98.408958,82.089035 83.284660,75.127525 
	C78.622566,72.981628 73.638824,71.512756 68.754898,69.875443 
	C60.720154,67.181831 52.530609,64.906548 44.627758,61.877235 
	C38.715290,59.610870 35.366390,55.035412 35.649586,48.293518 
	C35.921391,41.822670 39.550621,37.735226 45.124695,35.381844 
	C55.462982,31.017002 72.758713,31.978643 80.825783,43.915089 
	C81.251625,44.545193 81.975075,44.974163 82.645561,45.573238 
	C87.578781,42.477928 92.334595,39.493927 97.301910,36.377224 
	C96.685883,35.331230 96.308487,34.614773 95.862396,33.944000 
	C82.730415,14.197967 47.765366,9.142480 28.765743,24.237257 
	C11.197764,38.194626 13.010360,64.840599 32.447998,76.026619 
	C36.740467,78.496864 41.456234,80.324249 46.134075,82.012711 
	C55.670197,85.454765 65.436539,88.285690 74.869110,91.978638 
	C81.237968,94.472099 84.964668,99.583603 84.795532,106.750137 
	C84.627350,113.876289 80.572853,118.484039 74.380165,121.341621 
	C66.179977,125.125526 57.578079,125.259781 48.939133,123.400070 
	C39.251289,121.314560 32.241428,115.529236 27.834246,106.417152 
	C22.168449,109.576805 17.000925,112.458580 11.868149,115.320976 
	C16.135033,124.333595 18.415907,126.627983 26.704981,130.699478 
	C27.354664,131.018600 27.761110,131.810242 28.320494,132.340179 
	C29.933695,133.868484 31.314507,135.935272 33.233131,136.801392 
	C47.809273,143.381546 62.910255,144.135117 78.081192,139.411362 
	C92.123413,135.039093 100.883041,125.536972 103.652542,109.936958 
M262.057556,138.773102 
	C267.046265,135.738724 272.034973,132.704346 276.937927,129.722137 
	C277.127655,132.304962 277.341858,135.221176 277.549683,138.050217 
	C283.217682,138.050217 288.422943,138.050217 293.415405,138.050217 
	C293.415405,111.518448 293.415405,85.433861 293.415405,59.457199 
	C287.773865,59.457199 282.525146,59.457199 276.955383,59.457199 
	C276.955383,62.582481 276.955383,65.343102 276.955383,68.331459 
	C256.251709,53.765171 238.690277,53.419189 223.305038,67.042236 
	C208.727005,79.950546 204.953720,101.703285 214.281189,119.064232 
	C223.653000,136.507736 242.029831,144.299759 262.057556,138.773102 
M186.640137,59.075001 
	C185.182693,59.141205 183.725266,59.207409 181.863281,59.291988 
	C181.863281,62.453194 181.863281,65.350723 181.863281,68.527298 
	C159.552795,52.974350 139.119400,53.681255 124.546135,70.202682 
	C110.153694,86.519096 110.234627,111.379860 124.776329,127.731041 
	C131.762604,135.586639 140.707764,139.576965 151.040985,140.542465 
	C163.042206,141.663803 173.130966,137.519760 182.105698,127.681015 
	C182.105698,132.072586 182.105698,135.119110 182.105698,138.159851 
	C187.759872,138.159851 192.861801,138.159851 197.982025,138.159851 
	C197.982025,111.687569 197.982025,85.504044 197.982025,59.076511 
	C194.235962,59.076511 190.921097,59.076511 186.640137,59.075001 
M809.966370,136.094406 
	C810.558655,136.856461 811.127258,138.256577 811.746887,138.279510 
	C816.657166,138.461060 821.577209,138.380554 826.836243,138.380554 
	C826.836243,133.682465 826.827576,129.709045 826.837891,125.735672 
	C826.867737,114.247917 826.593567,102.748344 827.029907,91.275887 
	C827.441345,80.458542 835.670959,73.413261 846.628113,73.680794 
	C856.872681,73.930923 863.641663,80.860741 864.066040,91.642830 
	C864.196960,94.967842 864.103882,98.301865 864.104492,101.631767 
	C864.106873,113.741493 864.105408,125.851219 864.105408,138.110718 
	C869.847351,138.110718 875.098694,138.110718 880.894714,138.110718 
	C880.894714,134.257431 880.932800,130.635757 880.888000,127.015121 
	C880.710938,112.708740 881.547058,98.293861 880.062683,84.122917 
	C878.015137,64.575493 861.406372,53.528870 842.321960,58.210423 
	C836.840759,59.555000 831.931213,63.230255 826.546814,65.944138 
	C826.546814,51.942883 826.546814,37.537518 826.546814,23.165455 
	C820.826782,23.165455 815.558655,23.165455 809.963745,23.165455 
	C809.963745,60.650673 809.963745,97.907509 809.966370,136.094406 
M701.600769,81.105804 
	C702.694763,85.565636 704.606750,90.002617 704.732117,94.489502 
	C705.136414,108.962578 704.882812,123.454041 704.882812,138.034821 
	C710.597900,138.034821 715.996948,138.034821 721.148804,138.034821 
	C721.148804,120.358978 721.965942,102.995163 720.932617,85.742157 
	C719.759521,66.153465 703.033264,53.946037 683.816467,58.039505 
	C678.040344,59.269920 672.816284,63.091576 667.176514,65.804466 
	C667.176514,64.131050 667.176514,61.716213 667.176514,59.364464 
	C661.549927,59.364464 656.442688,59.364464 651.107300,59.364464 
	C651.107300,85.732407 651.107300,111.832428 651.107300,137.991104 
	C656.634338,137.991104 662.025330,137.991104 667.693909,137.991104 
	C667.693909,122.273224 667.498108,106.945946 667.769592,91.626953 
	C667.924744,82.877975 672.189209,77.278435 679.458984,74.808723 
	C687.737244,71.996414 695.514404,74.044243 701.600769,81.105804 
M732.280701,84.929390 
	C731.974182,86.052605 731.644897,87.170151 731.364624,88.299866 
	C725.633728,111.393227 739.323853,134.533142 761.655029,139.597809 
	C776.486572,142.961609 793.552917,137.329300 800.643677,124.975250 
	C796.389282,121.907135 792.112488,118.822823 787.910034,115.792122 
	C776.411865,126.332657 763.155457,126.799469 753.932617,117.274673 
	C744.700623,107.740288 744.630249,90.602150 753.782898,80.824867 
	C762.861084,71.127167 776.104431,71.465721 788.075928,81.929085 
	C792.302429,78.707268 796.581604,75.445259 801.003906,72.074158 
	C790.538574,59.631458 777.791077,55.037262 762.648560,57.990078 
	C747.752197,60.894882 737.651611,69.766449 732.280701,84.929390 
M456.251465,90.783943 
	C457.236328,90.041939 459.025391,89.348061 459.073181,88.549950 
	C459.346558,83.982430 459.205994,79.390121 459.205994,74.806747 
	C443.451080,74.806747 428.378510,74.806747 413.225647,74.806747 
	C413.225647,80.180977 413.225647,85.256172 413.225647,90.785767 
	C427.427612,90.785767 441.358490,90.785767 456.251465,90.783943 
M13.690041,150.590363 
	C17.626291,150.590363 21.562542,150.590363 25.425230,150.590363 
	C26.732954,135.976257 21.400087,130.765930 8.840783,133.961227 
	C8.840783,138.207138 9.049709,142.534348 8.772073,146.830109 
	C8.564681,150.039001 9.798476,151.053925 13.690041,150.590363 
M387.247101,22.610415 
	C391.055420,23.253216 394.863770,23.896019 398.888062,24.575272 
	C398.888062,18.404062 398.888062,13.364844 398.888062,8.239677 
	C393.413116,8.239677 388.225525,8.239677 382.798187,8.239677 
	C383.440918,13.257074 380.459625,18.875013 387.247101,22.610415 
z"/>
<path fill="#070707" opacity="1.000000" stroke="none" 
	d="
M489.012665,25.735361 
	C498.170929,25.745167 506.831787,25.829016 515.491028,25.747929 
	C528.774353,25.623541 538.907837,30.923878 544.043091,43.434559 
	C548.996155,55.501572 546.802429,66.572533 536.893066,76.157112 
	C544.632324,81.072365 550.160461,87.437675 552.392700,96.496109 
	C557.727295,118.143837 542.750549,138.081650 520.491882,138.382736 
	C506.031311,138.578339 491.566010,138.419571 476.763855,138.419571 
	C476.763855,100.835510 476.763855,63.634445 476.763855,25.735518 
	C480.652740,25.735518 484.583649,25.735518 489.012665,25.735361 
M509.493988,85.823479 
	C504.385498,85.823479 499.277039,85.823479 493.988129,85.823479 
	C493.988129,98.160774 493.988129,110.010513 493.988129,122.196770 
	C503.048706,122.196770 511.830017,122.448387 520.590454,122.128960 
	C530.155212,121.780212 536.576294,114.209534 536.524902,104.008080 
	C536.474060,93.912277 529.854431,86.370201 520.455566,85.861809 
	C517.141968,85.682564 513.810974,85.823586 509.493988,85.823479 
M527.626892,63.862751 
	C532.604736,53.208790 528.133911,42.612457 517.848450,41.805477 
	C509.984741,41.188499 502.033813,41.682816 493.968048,41.682816 
	C493.968048,51.302147 493.968048,60.499554 493.968048,70.001114 
	C502.016296,70.001114 509.836670,70.545876 517.517944,69.749306 
	C520.876038,69.401054 523.949524,66.308846 527.626892,63.862751 
z"/>
<path fill="#2647BA" opacity="1.000000" stroke="none" 
	d="
M372.492249,93.402206 
	C363.763947,90.154640 355.300171,87.208725 346.909882,84.066681 
	C340.381592,81.621933 333.678894,79.443604 327.526001,76.239807 
	C316.666168,70.585091 311.393005,61.091167 311.478760,48.889473 
	C311.567566,36.259659 317.412292,26.614105 328.591431,21.041470 
	C344.693695,13.014743 361.115204,13.718570 377.151703,21.620911 
	C378.915955,22.490284 379.868927,25.005981 381.963959,27.767523 
	C386.314026,27.395645 389.226074,31.539438 392.157166,36.797081 
	C387.252441,39.646397 382.335297,42.502911 377.203705,45.484020 
	C368.688721,33.817577 357.190521,31.320063 344.218109,34.146927 
	C340.802155,34.891312 337.236969,36.723911 334.627197,39.051296 
	C327.722168,45.209198 328.995087,56.250137 337.378754,60.511929 
	C343.693298,63.721889 350.731995,65.502899 357.437744,67.948990 
	C365.390381,70.849907 373.695679,73.057785 381.209900,76.835579 
	C404.194550,88.391167 402.627533,119.761200 385.393250,133.189484 
	C368.479584,146.367950 325.075592,147.375961 309.044922,120.540581 
	C308.122498,118.996452 307.268585,117.411400 306.217590,115.553360 
	C311.773621,112.455788 316.980072,109.553093 322.143829,106.674210 
	C334.987061,122.945129 347.659760,127.773415 364.645508,123.037163 
	C374.342133,120.333397 379.516022,114.031723 379.287720,105.380196 
	C379.153442,100.292175 376.810272,96.514046 372.492249,93.402206 
z"/>
<path fill="#DD2227" opacity="1.000000" stroke="none" 
	d="
M103.569794,110.364090 
	C100.883041,125.536972 92.123413,135.039093 78.081192,139.411362 
	C62.910255,144.135117 47.809273,143.381546 33.233131,136.801392 
	C31.314507,135.935272 29.933695,133.868484 28.320494,132.340179 
	C27.761110,131.810242 27.354664,131.018600 26.704981,130.699478 
	C18.415907,126.627983 16.135033,124.333595 11.868149,115.320976 
	C17.000925,112.458580 22.168449,109.576805 27.834246,106.417152 
	C32.241428,115.529236 39.251289,121.314560 48.939133,123.400070 
	C57.578079,125.259781 66.179977,125.125526 74.380165,121.341621 
	C80.572853,118.484039 84.627350,113.876289 84.795532,106.750137 
	C84.964668,99.583603 81.237968,94.472099 74.869110,91.978638 
	C65.436539,88.285690 55.670197,85.454765 46.134075,82.012711 
	C41.456234,80.324249 36.740467,78.496864 32.447998,76.026619 
	C13.010360,64.840599 11.197764,38.194626 28.765743,24.237257 
	C47.765366,9.142480 82.730415,14.197967 95.862396,33.944000 
	C96.308487,34.614773 96.685883,35.331230 97.301910,36.377224 
	C92.334595,39.493927 87.578781,42.477928 82.645561,45.573238 
	C81.975075,44.974163 81.251625,44.545193 80.825783,43.915089 
	C72.758713,31.978643 55.462982,31.017002 45.124695,35.381844 
	C39.550621,37.735226 35.921391,41.822670 35.649586,48.293518 
	C35.366390,55.035412 38.715290,59.610870 44.627758,61.877235 
	C52.530609,64.906548 60.720154,67.181831 68.754898,69.875443 
	C73.638824,71.512756 78.622566,72.981628 83.284660,75.127525 
	C98.408958,82.089035 104.786743,93.215813 103.569794,110.364090 
z"/>
<path fill="#050505" opacity="1.000000" stroke="none" 
	d="
M261.676514,138.886047 
	C242.029831,144.299759 223.653000,136.507736 214.281189,119.064232 
	C204.953720,101.703285 208.727005,79.950546 223.305038,67.042236 
	C238.690277,53.419189 256.251709,53.765171 276.955383,68.331459 
	C276.955383,65.343102 276.955383,62.582481 276.955383,59.457199 
	C282.525146,59.457199 287.773865,59.457199 293.415405,59.457199 
	C293.415405,85.433861 293.415405,111.518448 293.415405,138.050217 
	C288.422943,138.050217 283.217682,138.050217 277.549683,138.050217 
	C277.341858,135.221176 277.127655,132.304962 276.937927,129.722137 
	C272.034973,132.704346 267.046265,135.738724 261.676514,138.886047 
M273.599182,86.116905 
	C273.258972,85.548187 272.944977,84.961746 272.574646,84.413383 
	C265.022919,73.231331 251.999176,69.754654 240.254257,75.778839 
	C228.589310,81.762001 223.468033,95.383034 228.083466,108.149445 
	C232.399948,120.088943 244.739716,126.797623 257.285797,124.025665 
	C273.071014,120.538063 280.856567,103.132256 273.599182,86.116905 
z"/>
<path fill="#030303" opacity="1.000000" stroke="none" 
	d="
M187.123184,59.075756 
	C190.921097,59.076511 194.235962,59.076511 197.982025,59.076511 
	C197.982025,85.504044 197.982025,111.687569 197.982025,138.159851 
	C192.861801,138.159851 187.759872,138.159851 182.105698,138.159851 
	C182.105698,135.119110 182.105698,132.072586 182.105698,127.681015 
	C173.130966,137.519760 163.042206,141.663803 151.040985,140.542465 
	C140.707764,139.576965 131.762604,135.586639 124.776329,127.731041 
	C110.234627,111.379860 110.153694,86.519096 124.546135,70.202682 
	C139.119400,53.681255 159.552795,52.974350 181.863281,68.527298 
	C181.863281,65.350723 181.863281,62.453194 181.863281,59.291988 
	C183.725266,59.207409 185.182693,59.141205 187.123184,59.075756 
M154.809097,124.713394 
	C157.119080,124.490379 159.486969,124.518433 161.729126,124.001328 
	C171.998093,121.632957 178.369263,115.009903 180.534012,104.913170 
	C182.834946,94.181305 180.084595,84.561073 171.122818,77.738144 
	C162.968216,71.529739 153.863083,71.303276 144.783478,75.835541 
	C134.837692,80.800194 129.443497,91.781158 131.161392,102.943138 
	C132.932434,114.450607 141.228928,122.351646 154.809097,124.713394 
z"/>
<path fill="#050404" opacity="1.000000" stroke="none" 
	d="
M809.965088,135.629364 
	C809.963745,97.907509 809.963745,60.650673 809.963745,23.165455 
	C815.558655,23.165455 820.826782,23.165455 826.546814,23.165455 
	C826.546814,37.537518 826.546814,51.942883 826.546814,65.944138 
	C831.931213,63.230255 836.840759,59.555000 842.321960,58.210423 
	C861.406372,53.528870 878.015137,64.575493 880.062683,84.122917 
	C881.547058,98.293861 880.710938,112.708740 880.888000,127.015121 
	C880.932800,130.635757 880.894714,134.257431 880.894714,138.110718 
	C875.098694,138.110718 869.847351,138.110718 864.105408,138.110718 
	C864.105408,125.851219 864.106873,113.741493 864.104492,101.631767 
	C864.103882,98.301865 864.196960,94.967842 864.066040,91.642830 
	C863.641663,80.860741 856.872681,73.930923 846.628113,73.680794 
	C835.670959,73.413261 827.441345,80.458542 827.029907,91.275887 
	C826.593567,102.748344 826.867737,114.247917 826.837891,125.735672 
	C826.827576,129.709045 826.836243,133.682465 826.836243,138.380554 
	C821.577209,138.380554 816.657166,138.461060 811.746887,138.279510 
	C811.127258,138.256577 810.558655,136.856461 809.965088,135.629364 
z"/>
<path fill="#050505" opacity="1.000000" stroke="none" 
	d="
M701.367798,80.811035 
	C695.514404,74.044243 687.737244,71.996414 679.458984,74.808723 
	C672.189209,77.278435 667.924744,82.877975 667.769592,91.626953 
	C667.498108,106.945946 667.693909,122.273224 667.693909,137.991104 
	C662.025330,137.991104 656.634338,137.991104 651.107300,137.991104 
	C651.107300,111.832428 651.107300,85.732407 651.107300,59.364464 
	C656.442688,59.364464 661.549927,59.364464 667.176514,59.364464 
	C667.176514,61.716213 667.176514,64.131050 667.176514,65.804466 
	C672.816284,63.091576 678.040344,59.269920 683.816467,58.039505 
	C703.033264,53.946037 719.759521,66.153465 720.932617,85.742157 
	C721.965942,102.995163 721.148804,120.358978 721.148804,138.034821 
	C715.996948,138.034821 710.597900,138.034821 704.882812,138.034821 
	C704.882812,123.454041 705.136414,108.962578 704.732117,94.489502 
	C704.606750,90.002617 702.694763,85.565636 701.367798,80.811035 
z"/>
<path fill="#050505" opacity="1.000000" stroke="none" 
	d="
M732.443726,84.564171 
	C737.651611,69.766449 747.752197,60.894882 762.648560,57.990078 
	C777.791077,55.037262 790.538574,59.631458 801.003906,72.074158 
	C796.581604,75.445259 792.302429,78.707268 788.075928,81.929085 
	C776.104431,71.465721 762.861084,71.127167 753.782898,80.824867 
	C744.630249,90.602150 744.700623,107.740288 753.932617,117.274673 
	C763.155457,126.799469 776.411865,126.332657 787.910034,115.792122 
	C792.112488,118.822823 796.389282,121.907135 800.643677,124.975250 
	C793.552917,137.329300 776.486572,142.961609 761.655029,139.597809 
	C739.323853,134.533142 725.633728,111.393227 731.364624,88.299866 
	C731.644897,87.170151 731.974182,86.052605 732.443726,84.564171 
z"/>
<path fill="#F4B80D" opacity="1.000000" stroke="none" 
	d="
M578.941040,94.832390 
	C578.883362,93.681175 578.825684,92.529961 578.742859,90.877655 
	C573.391724,90.877655 568.119019,90.877655 562.825623,90.877655 
	C564.090393,71.748032 584.610901,55.561932 604.388428,57.613575 
	C628.587402,60.123882 643.969116,80.515717 640.223328,106.025490 
	C620.239502,106.025490 600.137329,106.025490 579.121948,106.017563 
	C575.805847,106.006294 573.402893,106.002953 570.961853,105.645950 
	C569.671509,104.244675 568.419250,103.197052 567.167053,102.149429 
	C566.108643,103.419098 565.050293,104.688766 563.740051,105.941231 
	C563.321045,105.904472 563.153931,105.884911 562.888428,105.684692 
	C562.619751,105.277222 562.401733,105.114006 562.136047,105.014374 
	C562.025879,102.694107 561.535828,100.300720 561.962585,98.083824 
	C562.182556,96.941132 564.033508,96.112389 565.569824,95.590637 
	C566.865479,97.508316 567.738892,98.977135 568.612244,100.445969 
	C570.079041,98.733650 571.545776,97.021317 573.012512,95.308990 
	C574.421448,95.264946 575.830444,95.220917 577.800415,95.360367 
	C578.554688,95.306694 578.747864,95.069542 578.941040,94.832390 
M590.680908,75.935448 
	C584.768127,79.219902 580.799866,83.867416 579.652100,90.811699 
	C594.431091,90.811699 608.654236,90.811699 622.908508,90.811699 
	C621.413391,76.522758 606.371765,69.433823 590.680908,75.935448 
z"/>
<path fill="#F5BA0F" opacity="1.000000" stroke="none" 
	d="
M578.955383,108.018219 
	C586.766541,123.420990 599.016113,129.029144 612.440735,122.875046 
	C616.413147,121.054008 619.784546,117.922112 623.921875,115.050446 
	C627.639221,117.633446 631.828186,120.544159 635.987488,123.434296 
	C630.398499,135.087463 612.701721,142.758530 596.683838,140.645020 
	C579.098267,138.324646 565.853882,125.932838 563.213562,108.425293 
	C568.803406,108.007431 573.879395,108.012825 578.955383,108.018219 
z"/>
<path fill="#060605" opacity="1.000000" stroke="none" 
	d="
M455.770416,90.784851 
	C441.358490,90.785767 427.427612,90.785767 413.225647,90.785767 
	C413.225647,85.256172 413.225647,80.180977 413.225647,74.806747 
	C428.378510,74.806747 443.451080,74.806747 459.205994,74.806747 
	C459.205994,79.390121 459.346558,83.982430 459.073181,88.549950 
	C459.025391,89.348061 457.236328,90.041939 455.770416,90.784851 
z"/>
<path fill="#DF2B2E" opacity="1.000000" stroke="none" 
	d="
M13.219855,150.590576 
	C9.798476,151.053925 8.564681,150.039001 8.772073,146.830109 
	C9.049709,142.534348 8.840783,138.207138 8.840783,133.961227 
	C21.400087,130.765930 26.732954,135.976257 25.425230,150.590363 
	C21.562542,150.590363 17.626291,150.590363 13.219855,150.590576 
z"/>
<path fill="#2648BC" opacity="1.000000" stroke="none" 
	d="
M386.980957,22.287357 
	C380.459625,18.875013 383.440918,13.257074 382.798187,8.239677 
	C388.225525,8.239677 393.413116,8.239677 398.888062,8.239677 
	C398.888062,13.364844 398.888062,18.404062 398.888062,24.575272 
	C394.863770,23.896019 391.055420,23.253216 386.980957,22.287357 
z"/>
<path fill="#F9C831" opacity="1.000000" stroke="none" 
	d="
M578.971313,107.689835 
	C573.879395,108.012825 568.803406,108.007431 563.242798,108.015213 
	C562.598450,107.520912 562.438721,107.013420 562.460693,106.211967 
	C562.642334,105.918007 562.986755,105.865356 562.986755,105.865356 
	C563.153931,105.884911 563.321045,105.904472 564.178223,105.957008 
	C566.912109,105.993202 568.956055,105.996407 571.000000,105.999611 
	C573.402893,106.002953 575.805847,106.006294 578.660522,106.032761 
	C579.070679,106.491066 579.028931,106.926262 578.971313,107.689835 
z"/>
<path fill="#F6BC13" opacity="1.000000" stroke="none" 
	d="
M572.581665,95.210686 
	C571.545776,97.021317 570.079041,98.733650 568.612244,100.445969 
	C567.738892,98.977135 566.865479,97.508316 565.990112,95.668427 
	C568.042358,95.235703 570.096619,95.174042 572.581665,95.210686 
z"/>
<path fill="#F6BC13" opacity="1.000000" stroke="none" 
	d="
M562.888428,105.684692 
	C562.986755,105.865356 562.642334,105.918007 562.469299,105.937805 
	C562.221191,105.808632 562.146057,105.659645 562.103455,105.262512 
	C562.401733,105.114006 562.619751,105.277222 562.888428,105.684692 
z"/>
<path fill="#F6BC13" opacity="1.000000" stroke="none" 
	d="
M578.709839,94.934547 
	C578.747864,95.069542 578.554688,95.306694 578.217651,95.441574 
	C578.208740,95.238449 578.343750,95.137573 578.709839,94.934547 
z"/>
<path fill="#FDFDFD" opacity="1.000000" stroke="none" 
	d="
M509.990967,85.820923 
	C513.810974,85.823586 517.141968,85.682564 520.455566,85.861809 
	C529.854431,86.370201 536.474060,93.912277 536.524902,104.008080 
	C536.576294,114.209534 530.155212,121.780212 520.590454,122.128960 
	C511.830017,122.448387 503.048706,122.196770 493.988129,122.196770 
	C493.988129,110.010513 493.988129,98.160774 493.988129,85.823479 
	C499.277039,85.823479 504.385498,85.823479 509.990967,85.820923 
z"/>
<path fill="#FCFCFC" opacity="1.000000" stroke="none" 
	d="
M527.389526,64.162727 
	C523.949524,66.308846 520.876038,69.401054 517.517944,69.749306 
	C509.836670,70.545876 502.016296,70.001114 493.968048,70.001114 
	C493.968048,60.499554 493.968048,51.302147 493.968048,41.682816 
	C502.033813,41.682816 509.984741,41.188499 517.848450,41.805477 
	C528.133911,42.612457 532.604736,53.208790 527.389526,64.162727 
z"/>
<path fill="#FBFBFB" opacity="1.000000" stroke="none" 
	d="
M273.768616,86.457001 
	C280.856567,103.132256 273.071014,120.538063 257.285797,124.025665 
	C244.739716,126.797623 232.399948,120.088943 228.083466,108.149445 
	C223.468033,95.383034 228.589310,81.762001 240.254257,75.778839 
	C251.999176,69.754654 265.022919,73.231331 272.574646,84.413383 
	C272.944977,84.961746 273.258972,85.548187 273.768616,86.457001 
z"/>
<path fill="#FBFBFB" opacity="1.000000" stroke="none" 
	d="
M154.389069,124.688538 
	C141.228928,122.351646 132.932434,114.450607 131.161392,102.943138 
	C129.443497,91.781158 134.837692,80.800194 144.783478,75.835541 
	C153.863083,71.303276 162.968216,71.529739 171.122818,77.738144 
	C180.084595,84.561073 182.834946,94.181305 180.534012,104.913170 
	C178.369263,115.009903 171.998093,121.632957 161.729126,124.001328 
	C159.486969,124.518433 157.119080,124.490379 154.389069,124.688538 
z"/>
<path fill="#FEFDFB" opacity="1.000000" stroke="none" 
	d="
M591.024048,75.773712 
	C606.371765,69.433823 621.413391,76.522758 622.908508,90.811699 
	C608.654236,90.811699 594.431091,90.811699 579.652100,90.811699 
	C580.799866,83.867416 584.768127,79.219902 591.024048,75.773712 
z"/>
<path fill="#F6BC13" opacity="1.000000" stroke="none" 
	d="
M570.961853,105.645950 
	C568.956055,105.996407 566.912109,105.993202 564.430054,105.974213 
	C565.050293,104.688766 566.108643,103.419098 567.167053,102.149429 
	C568.419250,103.197052 569.671509,104.244675 570.961853,105.645950 
z"/>
</svg>